<svg width="160" height="122" viewBox="0 0 160 122" fill="none" xmlns="http://www.w3.org/2000/svg">
<rect x="11.5" y="0.5" width="148" height="112" fill="white" stroke="white"/>
<rect x="0.5" y="9.5" width="148" height="112" fill="#F6BE25" stroke="white"/>
<path d="M25.2441 65.5342C25.2441 67.0739 24.972 68.4238 24.4277 69.584C23.8835 70.7441 23.1029 71.6393 22.0859 72.2695C21.0762 72.8997 19.916 73.2148 18.6055 73.2148C17.3092 73.2148 16.1527 72.9033 15.1357 72.2803C14.1188 71.6572 13.3311 70.7692 12.7725 69.6162C12.2139 68.4561 11.931 67.124 11.9238 65.6201V64.8467C11.9238 63.307 12.1995 61.9535 12.751 60.7861C13.3096 59.6117 14.0938 58.7129 15.1035 58.0898C16.1204 57.4596 17.2806 57.1445 18.584 57.1445C19.8874 57.1445 21.0439 57.4596 22.0537 58.0898C23.0706 58.7129 23.8548 59.6117 24.4062 60.7861C24.9648 61.9535 25.2441 63.3034 25.2441 64.8359V65.5342ZM21.9785 64.8252C21.9785 63.1852 21.6849 61.9391 21.0977 61.0869C20.5104 60.2347 19.6725 59.8086 18.584 59.8086C17.5026 59.8086 16.6683 60.2311 16.0811 61.0762C15.4938 61.9141 15.1966 63.1458 15.1895 64.7715V65.5342C15.1895 67.1312 15.4831 68.3701 16.0703 69.251C16.6576 70.1318 17.5026 70.5723 18.6055 70.5723C19.6868 70.5723 20.5176 70.1497 21.0977 69.3047C21.6777 68.4525 21.9714 67.2135 21.9785 65.5879V64.8252ZM30.8086 70.4111H37.6514V73H27.5859V57.3594H30.8086V70.4111ZM48.9199 66.2217H42.7324V70.4111H49.9941V73H39.5098V57.3594H49.9727V59.9697H42.7324V63.6973H48.9199V66.2217ZM51.8848 73V57.3594H56.6973C58.0723 57.3594 59.3005 57.6709 60.3818 58.2939C61.4704 58.9098 62.319 59.7907 62.9277 60.9365C63.5365 62.0752 63.8408 63.3714 63.8408 64.8252V65.5449C63.8408 66.9987 63.54 68.2913 62.9385 69.4229C62.3441 70.5544 61.5026 71.4316 60.4141 72.0547C59.3255 72.6777 58.0973 72.9928 56.7295 73H51.8848ZM55.1074 59.9697V70.4111H56.665C57.9255 70.4111 58.8887 69.9993 59.5547 69.1758C60.2207 68.3522 60.5609 67.1742 60.5752 65.6416V64.8145C60.5752 63.2246 60.2458 62.0215 59.5869 61.2051C58.9281 60.3815 57.9648 59.9697 56.6973 59.9697H55.1074ZM74.8945 70.4111H81.7373V73H71.6719V57.3594H74.8945V70.4111ZM86.668 73H83.5527V61.377H86.668V73ZM83.3701 58.3691C83.3701 57.9036 83.5241 57.5205 83.832 57.2197C84.1471 56.9189 84.5732 56.7686 85.1104 56.7686C85.6403 56.7686 86.0628 56.9189 86.3779 57.2197C86.693 57.5205 86.8506 57.9036 86.8506 58.3691C86.8506 58.8418 86.6895 59.2285 86.3672 59.5293C86.0521 59.8301 85.6331 59.9805 85.1104 59.9805C84.5876 59.9805 84.165 59.8301 83.8428 59.5293C83.5277 59.2285 83.3701 58.8418 83.3701 58.3691ZM101.718 67.79C101.596 69.473 100.973 70.7979 99.8486 71.7646C98.7314 72.7314 97.2562 73.2148 95.4229 73.2148C93.4176 73.2148 91.8385 72.5417 90.6855 71.1953C89.5397 69.8418 88.9668 67.987 88.9668 65.6309V64.6748C88.9668 63.1709 89.2318 61.846 89.7617 60.7002C90.2917 59.5544 91.0472 58.6771 92.0283 58.0684C93.0166 57.4525 94.1624 57.1445 95.4658 57.1445C97.2705 57.1445 98.7243 57.6279 99.8271 58.5947C100.93 59.5615 101.567 60.9186 101.739 62.666H98.5166C98.4378 61.6562 98.1549 60.9258 97.668 60.4746C97.1882 60.0163 96.4541 59.7871 95.4658 59.7871C94.3916 59.7871 93.5859 60.1738 93.0488 60.9473C92.5189 61.7135 92.2467 62.9059 92.2324 64.5244V65.7061C92.2324 67.3962 92.4867 68.6315 92.9951 69.4121C93.5107 70.1927 94.32 70.583 95.4229 70.583C96.4183 70.583 97.1595 70.3574 97.6465 69.9062C98.1406 69.4479 98.4235 68.7425 98.4951 67.79H101.718ZM116.563 73H113.341V66.2969H107.057V73H103.834V57.3594H107.057V63.6973H113.341V57.3594H116.563V73ZM130.84 59.9697H126.049V73H122.826V59.9697H118.1V57.3594H130.84V59.9697ZM21.8066 92.6084H15.6191V99H12.3965V83.3594H22.5801V85.9697H15.6191V90.0088H21.8066V92.6084ZM37.2969 91.5342C37.2969 93.0739 37.0247 94.4238 36.4805 95.584C35.9362 96.7441 35.1556 97.6393 34.1387 98.2695C33.1289 98.8997 31.9688 99.2148 30.6582 99.2148C29.362 99.2148 28.2054 98.9033 27.1885 98.2803C26.1715 97.6572 25.3838 96.7692 24.8252 95.6162C24.2666 94.4561 23.9837 93.124 23.9766 91.6201V90.8467C23.9766 89.307 24.2523 87.9535 24.8037 86.7861C25.3623 85.6117 26.1465 84.7129 27.1562 84.0898C28.1732 83.4596 29.3333 83.1445 30.6367 83.1445C31.9401 83.1445 33.0967 83.4596 34.1064 84.0898C35.1234 84.7129 35.9076 85.6117 36.459 86.7861C37.0176 87.9535 37.2969 89.3034 37.2969 90.8359V91.5342ZM34.0312 90.8252C34.0312 89.1852 33.7376 87.9391 33.1504 87.0869C32.5632 86.2347 31.7253 85.8086 30.6367 85.8086C29.5553 85.8086 28.721 86.2311 28.1338 87.0762C27.5465 87.9141 27.2493 89.1458 27.2422 90.7715V91.5342C27.2422 93.1312 27.5358 94.3701 28.123 95.251C28.7103 96.1318 29.5553 96.5723 30.6582 96.5723C31.7396 96.5723 32.5703 96.1497 33.1504 95.3047C33.7305 94.4525 34.0241 93.2135 34.0312 91.5879V90.8252ZM45.4287 93.2744H42.8613V99H39.6387V83.3594H45.4502C47.2979 83.3594 48.723 83.7712 49.7256 84.5947C50.7282 85.4183 51.2295 86.582 51.2295 88.0859C51.2295 89.153 50.9967 90.0446 50.5312 90.7607C50.0729 91.4697 49.3747 92.0355 48.4365 92.458L51.8203 98.8496V99H48.3613L45.4287 93.2744ZM42.8613 90.6641H45.4609C46.2702 90.6641 46.8968 90.46 47.3408 90.0518C47.7848 89.6364 48.0068 89.0671 48.0068 88.3438C48.0068 87.6061 47.7956 87.026 47.373 86.6035C46.9577 86.181 46.3167 85.9697 45.4502 85.9697H42.8613V90.6641ZM65.5273 83.3594V93.6611C65.5273 95.3727 64.9902 96.7262 63.916 97.7217C62.849 98.7171 61.388 99.2148 59.5332 99.2148C57.707 99.2148 56.2568 98.7314 55.1826 97.7646C54.1084 96.7979 53.5605 95.4694 53.5391 93.7793V83.3594H56.7617V93.6826C56.7617 94.7067 57.0052 95.4551 57.4922 95.9277C57.9863 96.3932 58.6667 96.626 59.5332 96.626C61.3451 96.626 62.2653 95.6735 62.2939 93.7686V83.3594H65.5273ZM72.3809 83.3594L76.3984 94.7031L80.3945 83.3594H84.627V99H81.3936V94.7246L81.7158 87.3447L77.4941 99H75.2812L71.0703 87.3555L71.3926 94.7246V99H68.1699V83.3594H72.3809Z" fill="white"/>
</svg>
